<?xml version="1.0" standalone="no"?><!DOCTYPE svg PUBLIC "-//W3C//DTD SVG 1.1//EN" "http://www.w3.org/Graphics/SVG/1.1/DTD/svg11.dtd"><svg t="1693292528982" class="icon" viewBox="0 0 1024 1024" version="1.1" xmlns="http://www.w3.org/2000/svg" p-id="4502" xmlns:xlink="http://www.w3.org/1999/xlink" width="200" height="200"><path d="M579.584 511.488c-11.776 0-23.552 10.752-23.552 24.064 0 10.752 11.776 21.504 23.552 21.504 17.408 0 30.208-10.752 30.208-21.504 0-13.312-12.8-24.064-30.208-24.064z m-76.8-171.008c-17.408 0-34.304 10.752-34.304 29.184 0 17.408 16.896 29.184 34.304 29.184 18.432 0 30.208-11.776 30.208-29.184 0-18.432-11.776-29.184-30.208-29.184z m-164.864 0c-17.408 0-35.84 10.752-35.84 29.184 0 17.408 18.432 29.184 35.84 29.184 16.384 0 30.208-11.776 30.208-29.184-0.512-18.432-13.824-29.184-30.208-29.184z m164.864 0c-17.408 0-34.304 10.752-34.304 29.184 0 17.408 16.896 29.184 34.304 29.184 18.432 0 30.208-11.776 30.208-29.184 0-18.432-11.776-29.184-30.208-29.184z m76.8 171.008c-11.776 0-23.552 10.752-23.552 24.064 0 10.752 11.776 21.504 23.552 21.504 17.408 0 30.208-10.752 30.208-21.504 0-13.312-12.8-24.064-30.208-24.064z m131.072 0c-12.288 0-23.552 10.752-23.552 24.064 0 10.752 10.752 21.504 23.552 21.504 16.896 0 29.184-10.752 29.184-21.504 0-13.312-12.8-24.064-29.184-24.064z m0 0c-12.288 0-23.552 10.752-23.552 24.064 0 10.752 10.752 21.504 23.552 21.504 16.896 0 29.184-10.752 29.184-21.504 0-13.312-12.8-24.064-29.184-24.064z m-131.072 0c-11.776 0-23.552 10.752-23.552 24.064 0 10.752 11.776 21.504 23.552 21.504 17.408 0 30.208-10.752 30.208-21.504 0-13.312-12.8-24.064-30.208-24.064z m-76.8-171.008c-17.408 0-34.304 10.752-34.304 29.184 0 17.408 16.896 29.184 34.304 29.184 18.432 0 30.208-11.776 30.208-29.184 0-18.432-11.776-29.184-30.208-29.184z m-164.864 0c-17.408 0-35.84 10.752-35.84 29.184 0 17.408 18.432 29.184 35.84 29.184 16.384 0 30.208-11.776 30.208-29.184-0.512-18.432-13.824-29.184-30.208-29.184zM512 0C229.376 0 0 229.376 0 512s229.376 512 512 512 512-229.376 512-512S794.624 0 512 0z m-75.776 641.024c-6.656 1.024-14.336 1.024-20.992 1.024-30.72 0-53.248-5.12-82.432-13.312l-84.48 41.984 24.064-71.68c-59.392-41.984-94.208-94.208-94.208-158.72 0-113.664 107.008-200.192 236.544-200.192 115.2 0 217.6 68.096 237.568 164.864a126.523077 126.523077 0 0 0-22.528-2.56c-113.664 0-200.704 84.992-200.704 187.392 0.512 18.432 3.072 34.304 7.168 51.2z m280.064 106.496c-24.064 5.12-47.616 12.288-71.68 12.288-111.616 0-200.192-76.8-200.192-172.032s88.576-171.52 200.192-171.52c105.984 0 200.704 76.8 200.704 171.52 0 53.248-35.84 100.864-82.432 135.168l16.896 59.904-63.488-35.328z m-5.632-236.032c-12.288 0-23.552 10.752-23.552 24.064 0 10.752 10.752 21.504 23.552 21.504 16.896 0 29.184-10.752 29.184-21.504 0-13.312-12.8-24.064-29.184-24.064z m-131.072 0c-11.776 0-23.552 10.752-23.552 24.064 0 10.752 11.776 21.504 23.552 21.504 17.408 0 30.208-10.752 30.208-21.504 0-13.312-12.8-24.064-30.208-24.064z m-46.592-141.824c0-18.432-11.776-29.184-30.208-29.184-17.408 0-34.304 10.752-34.304 29.184 0 17.408 16.896 29.184 34.304 29.184 18.432 0 30.208-11.776 30.208-29.184zM337.92 340.48c-17.408 0-35.84 10.752-35.84 29.184 0 17.408 18.432 29.184 35.84 29.184 16.384 0 30.208-11.776 30.208-29.184-0.512-18.432-13.824-29.184-30.208-29.184z m0 0c-17.408 0-35.84 10.752-35.84 29.184 0 17.408 18.432 29.184 35.84 29.184 16.384 0 30.208-11.776 30.208-29.184-0.512-18.432-13.824-29.184-30.208-29.184z m164.864 0c-17.408 0-34.304 10.752-34.304 29.184 0 17.408 16.896 29.184 34.304 29.184 18.432 0 30.208-11.776 30.208-29.184 0-18.432-11.776-29.184-30.208-29.184z m76.8 171.008c-11.776 0-23.552 10.752-23.552 24.064 0 10.752 11.776 21.504 23.552 21.504 17.408 0 30.208-10.752 30.208-21.504 0-13.312-12.8-24.064-30.208-24.064z m131.072 0c-12.288 0-23.552 10.752-23.552 24.064 0 10.752 10.752 21.504 23.552 21.504 16.896 0 29.184-10.752 29.184-21.504 0-13.312-12.8-24.064-29.184-24.064zM337.92 340.48c-17.408 0-35.84 10.752-35.84 29.184 0 17.408 18.432 29.184 35.84 29.184 16.384 0 30.208-11.776 30.208-29.184-0.512-18.432-13.824-29.184-30.208-29.184z m372.736 171.008c-12.288 0-23.552 10.752-23.552 24.064 0 10.752 10.752 21.504 23.552 21.504 16.896 0 29.184-10.752 29.184-21.504 0-13.312-12.8-24.064-29.184-24.064z" fill="#0AB70E" p-id="4503"></path></svg>